<?xml version="1.0" encoding="UTF-8"?>
<svg width="128px" height="128px" viewBox="0 0 128 128" version="1.1" xmlns="http://www.w3.org/2000/svg" xmlns:xlink="http://www.w3.org/1999/xlink">
    <g id="Page-1" stroke="none" stroke-width="1" fill="none" fill-rule="evenodd">
        <rect id="logo" x="0" y="0" width="128" height="128"></rect id="logo">
        <g id="journy" transform="translate(14.000000, 14.000000)" fill-rule="nonzero">
            <path d="M49.5,22 C65.2401961,22 78,34.7598039 78,50.5 C78,66.2401961 65.2401961,79 49.5,79 C33.7598039,79 21,66.2401961 21,50.5 C21,34.7598039 33.7598039,22 49.5,22" id="Fill-39" fill="#F2994A"></path>
            <path d="M50.0905841,8.36272686 C27.0453562,8.36272686 8.36419605,27.0457898 8.36419605,50.0913872 C8.36419605,73.1369845 27.0453562,91.8184442 50.0905841,91.8184442 C73.135812,91.8184442 91.8169721,73.1369845 91.8169721,50.0913872 C91.8169721,27.0457898 73.135812,8.36272686 50.0905841,8.36272686 M49.9991984,0 C77.6137111,0 100,22.3850446 100,50 C100,77.6149554 77.6137111,100 49.9991984,100 C22.3862889,100 0,77.6149554 0,50 C0,22.3850446 22.3862889,0 49.9991984,0" id="Fill-41" fill="#528AFA"></path>
        </g>
    </g>
</svg>
