<svg height="128" viewBox="0 0 128 128" width="128" xmlns="http://www.w3.org/2000/svg"><g fill="none" fill-rule="evenodd"><path d="m0 0h128v128h-128z"/><g fill-rule="nonzero" transform="translate(14 14)"><path d="m49.5 22c15.7401961 0 28.5 12.7598039 28.5 28.5s-12.7598039 28.5-28.5 28.5-28.5-12.7598039-28.5-28.5 12.7598039-28.5 28.5-28.5" fill="#f2994a"/><path d="m50.0905841 8.36272686c-23.0452279 0-41.72638805 18.68306294-41.72638805 41.72866034 0 23.0455973 18.68116015 41.727057 41.72638805 41.727057s41.726388-18.6814597 41.726388-41.727057c0-23.0455974-18.6811601-41.72866034-41.726388-41.72866034m-.0913857-8.36272686c27.6145127 0 50.0008016 22.3850446 50.0008016 50s-22.3862889 50-50.0008016 50c-27.6129095 0-49.9991984-22.3850446-49.9991984-50s22.3862889-50 49.9991984-50" fill="#528afa"/></g></g></svg>
